<?xml version="1.0" encoding="utf-8"?><svg version="1.1" id="Layer_1" xmlns="http://www.w3.org/2000/svg" xmlns:xlink="http://www.w3.org/1999/xlink" x="0px" y="0px" viewBox="0 0 122.88 106.7" style="enable-background:new 0 0 122.88 106.7" xml:space="preserve"><style type="text/css">.st0{fill-rule:evenodd;clip-rule:evenodd;}</style><g><path class="st0" d="M61.63,34.97v1.35c2.36-3.46,5.11-6.19,8.29-8.36c5.1-3.5,11.21-5.5,18.45-6.78c1.16-0.2,2.27,0.57,2.47,1.74 c0.2,1.16-0.57,2.27-1.74,2.47c-6.67,1.17-12.24,2.98-16.78,6.09c-3.66,2.51-6.7,5.91-9.16,10.56c17.37,1.74,27.65,0.04,35.12-5.39 c7.4-5.39,12.4-14.7,18.93-28.1c-1.92,0.11-3.92,0.21-5.95,0.3c-13.16,0.61-27.58,1.28-36.58,9.2c-2.3,2.03-4.55,4.46-6.74,7.31 C65.81,28.11,63.71,31.31,61.63,34.97L61.63,34.97L61.63,34.97z M55.17,24.03c-0.73-0.98-1.55-1.76-2.45-2.39 c-1.77-1.23-3.95-1.95-6.54-2.52c-1.15-0.25-1.89-1.39-1.64-2.54c0.25-1.15,1.39-1.89,2.54-1.64c3.09,0.68,5.75,1.57,8.05,3.16 c-0.17-0.52-0.36-1.04-0.56-1.54c-1.09-2.68-2.69-5.13-4.9-7.07c-2.55-2.24-5.82-2.65-8.81-3.03l-0.07-0.01L25.1,5.49l4.06,8.38 c2.84,5.09,6.69,7.92,11.4,9.29C44.71,24.36,49.62,24.49,55.17,24.03L55.17,24.03L55.17,24.03z M56.84,29.12 c-6.62,0.64-12.55,0.55-17.73-0.96c-6.06-1.76-10.97-5.38-14.56-11.86c-0.02-0.04-0.05-0.09-0.07-0.13l0,0L18.46,3.74 c-0.63-1.3-0.08-2.86,1.22-3.48c0.42-0.2,0.86-0.28,1.29-0.25v0l20.15,1.24c0.11,0.01,0.22,0.02,0.33,0.04L41.5,1.3 c3.76,0.47,7.88,0.99,11.61,4.28c2.85,2.51,4.91,5.63,6.29,9.03c1.51,3.72,2.19,7.77,2.19,11.66c0,0.29-0.05,0.57-0.13,0.83 c1.02-1.53,2.05-2.97,3.09-4.32c2.4-3.13,4.84-5.76,7.29-7.92c10.12-8.9,25.34-9.61,39.22-10.25c3.21-0.15,6.34-0.29,9.49-0.56l0,0 c0.37-0.03,0.75,0.03,1.1,0.2c1.06,0.51,1.51,1.79,0.99,2.85c-7.63,15.76-13.03,26.56-21.88,33c-8.63,6.28-20.18,8.16-39.66,6.03 v17.11c8.14-11.35,16.1-11.54,29.1-11.85c2.78-0.07,5.82-0.14,9.28-0.35v0c0.35-0.02,0.71,0.04,1.05,0.21 c1.06,0.51,1.51,1.79,0.99,2.85c-5.31,10.98-8.75,17.79-14.62,21.64c-5.62,3.69-13.02,4.36-25.81,2.98v27.99h-4.28V79.32 c-17.55,1.91-28.2,0.3-36.25-5.3C12.33,68.27,7.15,58.54,0.21,44.21c-0.51-1.06-0.07-2.34,0.99-2.85c0.35-0.17,0.72-0.23,1.09-0.21 v0c2.85,0.22,5.76,0.34,8.75,0.46c12.84,0.51,27.32,1.08,36.45,9.11c4.28,3.76,7.29,6.89,9.34,10.34L56.84,29.12L56.84,29.12z M52.15,75.48c-2.92-3.84-6-6.72-9.28-8.97c-4.03-2.76-8.42-4.61-13.23-6.13c-1.13-0.35-1.75-1.56-1.39-2.68 c0.36-1.13,1.56-1.75,2.68-1.4c5.17,1.63,9.92,3.64,14.35,6.68c3.86,2.64,7.44,6.05,10.81,10.63c-0.25-3.76-0.96-6.68-2.32-9.3 c-1.76-3.41-4.67-6.5-9.1-10.39c-8.01-7.04-21.67-7.58-33.8-8.06c-1.79-0.07-3.54-0.14-5.22-0.23 c5.86,11.92,10.56,20.13,17.38,24.87C29.54,75.03,38.25,76.59,52.15,75.48L52.15,75.48L52.15,75.48z M62.85,68.35 c1.6-1.42,3.4-2.62,5.32-3.64c4.42-2.35,9.5-3.75,14.2-4.57c1.16-0.2,2.27,0.57,2.47,1.74c0.2,1.16-0.57,2.27-1.74,2.47 c-4.31,0.76-8.95,2.03-12.93,4.14c-2.9,1.54-5.44,3.54-7.21,6.12c10.88,1.09,17.16,0.5,21.63-2.43c4.37-2.87,7.4-8.26,11.54-16.7 c-2.03,0.08-3.97,0.13-5.81,0.17C77.85,55.94,70.56,56.12,62.85,68.35L62.85,68.35L62.85,68.35z"/></g></svg>